<svg xmlns="http://www.w3.org/2000/svg" width="32.2" height="28.175" viewBox="0 0 32.2 28.175">
  <path id="Icon_metro-image" data-name="Icon metro-image" d="M32.754,5.869l0,0V30.015l0,0H4.587l0,0V5.872l0,0Zm0-2.012H4.583A2.018,2.018,0,0,0,2.571,5.869v24.15a2.018,2.018,0,0,0,2.012,2.012H32.758a2.018,2.018,0,0,0,2.012-2.012V5.869a2.018,2.018,0,0,0-2.012-2.012ZM28.733,10.9a3.019,3.019,0,1,1-3.019-3.019A3.019,3.019,0,0,1,28.733,10.9Zm2.012,17.106H6.6V23.981l7.044-12.075,8.05,10.062H23.7l7.044-6.037Z" transform="translate(-2.571 -3.856)" fill="#fff"/>
</svg>
