<svg xmlns="http://www.w3.org/2000/svg" width="28.175" height="28.175" viewBox="0 0 28.175 28.175">
  <path id="Icon_material-flip-to-back" data-name="Icon material-flip-to-back" d="M13.892,10.761H10.761v3.131h3.131Zm0,6.261H10.761v3.131h3.131Zm0-12.522a3.13,3.13,0,0,0-3.131,3.131h3.131Zm6.261,18.783H17.022v3.131h3.131ZM29.544,4.5V7.631h3.131A3.14,3.14,0,0,0,29.544,4.5Zm-9.392,0H17.022V7.631h3.131ZM13.892,26.414V23.283H10.761A3.13,3.13,0,0,0,13.892,26.414Zm15.653-6.261h3.131V17.022H29.544Zm0-6.261h3.131V10.761H29.544Zm0,12.522a3.14,3.14,0,0,0,3.131-3.131H29.544ZM7.631,10.761H4.5V29.544a3.13,3.13,0,0,0,3.131,3.131H26.414V29.544H7.631ZM23.283,7.631h3.131V4.5H23.283Zm0,18.783h3.131V23.283H23.283Z" transform="translate(-4.5 -4.5)" fill="#fff"/>
</svg>
