<svg xmlns="http://www.w3.org/2000/svg" width="24.609" height="29.182" viewBox="0 0 24.609 29.182">
    <g id="Group_23" data-name="Group 23" transform="translate(-1956.52 -203.75)">
      <path id="Path_17" data-name="Path 17" d="M182.875,58.715a.273.273,0,0,0-.047-.151l0,0a.263.263,0,0,0-.03-.036l0,0-.015-.015h0l-5.931-5.93a.27.27,0,0,0-.038-.031l-.012-.008-.032-.017-.013-.006a.27.27,0,0,0-.046-.014h0a.292.292,0,0,0-.049,0h-15.67a2.223,2.223,0,0,0-2.22,2.22V78.955a2.223,2.223,0,0,0,2.22,2.22h19.667a2.223,2.223,0,0,0,2.22-2.22V58.729s0-.009,0-.014Zm-.943-.276h-4.023a.982.982,0,0,1-.981-.981V53.435Zm-1.278,22.184H160.987a1.671,1.671,0,0,1-1.669-1.668V54.713a1.671,1.671,0,0,1,1.669-1.669h15.39v4.414a1.535,1.535,0,0,0,1.533,1.533h4.414V78.954a1.671,1.671,0,0,1-1.669,1.668Z" transform="translate(1798.004 151.507)" stroke="#000" stroke-width="0.5"/>
      <path id="Path_18" data-name="Path 18" d="M243.2,193.526a.276.276,0,0,1-.2-.081l-.094-.094a.276.276,0,0,1-.081-.2v-.708a.276.276,0,0,1,.081-.2l.1-.1a.275.275,0,0,1,.179-.08,10.742,10.742,0,0,0,1.163-.1.181.181,0,0,0,.153-.166,23.386,23.386,0,0,0,.131-3.181v-5.914c0-1.526-.008-2.27-.018-2.619H243.4a9.722,9.722,0,0,0-2.081.1.3.3,0,0,0-.091.048,2.106,2.106,0,0,0-.115.55c-.048.359-.078.732-.092,1.111a.276.276,0,0,1-.081.185l-.1.1a.276.276,0,0,1-.2.081h-.656a.276.276,0,0,1-.185-.072l-.115-.1a.276.276,0,0,1-.09-.2l-.021-1.781a11.983,11.983,0,0,0-.122-1.516.276.276,0,0,1,.068-.224l.094-.1a.277.277,0,0,1,.251-.087c.392.066,1.883.1,4.431.1h4.217c2.353,0,3.849-.034,4.446-.1a.274.274,0,0,1,.226.079l.1.1a.276.276,0,0,1,.077.239,10.577,10.577,0,0,0-.132,1.553l-.021,1.739a.276.276,0,0,1-.081.192l-.1.1a.276.276,0,0,1-.2.081h-.656a.275.275,0,0,1-.175-.062l-.115-.094a.276.276,0,0,1-.1-.2,11.133,11.133,0,0,0-.1-1.5c-.035-.114-.118-.248-.438-.292-.074-.011-.417-.029-1.921-.029h-1.128c-.008.434-.013,1.311-.013,2.619v5.914a23.36,23.36,0,0,0,.131,3.179.183.183,0,0,0,.156.168,10.85,10.85,0,0,0,1.161.095.275.275,0,0,1,.179.08l.1.1a.276.276,0,0,1,.081.2v.7a.276.276,0,0,1-.081.2l-.1.1a.274.274,0,0,1-.212.08c-.678-.041-1.751-.062-3.19-.062-1.473,0-2.546.021-3.189.062H243.2Zm3.207-.614c1.324,0,2.343.018,3.035.052v-.354a7.8,7.8,0,0,1-1.118-.1.731.731,0,0,1-.555-.6,23.288,23.288,0,0,1-.139-3.275v-5.914c0-1.709.007-2.662.021-2.91a.276.276,0,0,1,.275-.26h1.4c1.568,0,1.892.018,2,.034a.971.971,0,0,1,.89.683l0,.007a8.545,8.545,0,0,1,.117,1.452h.332l.019-1.57a11.234,11.234,0,0,1,.1-1.4c-.724.056-2.128.084-4.274.084h-4.217c-2.231,0-3.636-.026-4.266-.078a12.372,12.372,0,0,1,.1,1.35l.019,1.613h.332c.016-.341.046-.676.089-1a2.244,2.244,0,0,1,.189-.765l.011-.018a.715.715,0,0,1,.362-.261,8.665,8.665,0,0,1,2.273-.132h1.489a.276.276,0,0,1,.275.249c.022.227.033,1.182.033,2.921v5.914a23.264,23.264,0,0,1-.14,3.277.729.729,0,0,1-.552.6,7.679,7.679,0,0,1-1.12.1v.353c.667-.034,1.682-.052,3.025-.052Z" transform="translate(1722.41 33.745)" stroke="#000" stroke-width="0.5"/>
    </g>
  </svg>
  