<svg xmlns="http://www.w3.org/2000/svg" width="31.796" height="31.796" viewBox="0 0 31.796 31.796">
  <g id="Icon_feather-image" data-name="Icon feather-image" transform="translate(1.5 1.5)">
    <path id="Path_1" data-name="Path 1" d="M7.631,4.5H29.544a3.131,3.131,0,0,1,3.131,3.131V29.544a3.131,3.131,0,0,1-3.131,3.131H7.631A3.131,3.131,0,0,1,4.5,29.544V7.631A3.131,3.131,0,0,1,7.631,4.5Z" transform="translate(-4.5 -4.5)" fill="none" stroke="#fff" stroke-linecap="round" stroke-linejoin="round" stroke-width="3"/>
    <path id="Path_2" data-name="Path 2" d="M15.2,12.848A2.348,2.348,0,1,1,12.848,10.5,2.348,2.348,0,0,1,15.2,12.848Z" transform="translate(-4.239 -4.239)" fill="none" stroke="#fff" stroke-linecap="round" stroke-linejoin="round" stroke-width="3"/>
    <path id="Path_3" data-name="Path 3" d="M32.544,22.826,24.718,15,7.5,32.218" transform="translate(-4.369 -4.043)" fill="none" stroke="#fff" stroke-linecap="round" stroke-linejoin="round" stroke-width="3"/>
  </g>
</svg>
