<svg xmlns="http://www.w3.org/2000/svg" width="32.426" height="32.426" viewBox="0 0 32.426 32.426">
  <g id="Group_19" data-name="Group 19" transform="translate(212.518 -164.604)">
    <path id="Path_4" data-name="Path 4" d="M155.519,99A13.482,13.482,0,1,1,169,85.516a12.532,12.532,0,0,1-.177,2.144l1.663.287a14.115,14.115,0,0,0,.194-2.431,15.166,15.166,0,1,0-15.162,15.17,15.011,15.011,0,0,0,2.431-.194l-.287-1.663a13.363,13.363,0,0,1-2.145.169Z" transform="translate(-352.867 94.258)" fill="#fff" />
    <path id="Path_5" data-name="Path 5" d="M288.614,160.261V157.1a4.67,4.67,0,0,0,1.52-.65,3.533,3.533,0,0,0,1.249-1.317,4.008,4.008,0,0,0,.447-2.018,4.122,4.122,0,0,0-.253-1.52,3.611,3.611,0,0,0-.751-1.182,4.61,4.61,0,0,0-1.182-.9,10.836,10.836,0,0,0-1.536-.768,10.354,10.354,0,0,1-1.131-.515,4.22,4.22,0,0,1-.853-.5,2.409,2.409,0,0,1-.549-.549,1.176,1.176,0,0,1-.186-.65,1.021,1.021,0,0,1,.169-.583,1.34,1.34,0,0,1,.481-.464,2.7,2.7,0,0,1,.768-.287,4.438,4.438,0,0,1,.988-.1,7.7,7.7,0,0,1,.853.051,5.5,5.5,0,0,1,.886.186,7.856,7.856,0,0,1,.886.3,6.068,6.068,0,0,1,.785.447V143.09a8.828,8.828,0,0,0-2.592-.515V140h-3.419v2.87a5.22,5.22,0,0,0-1.536.684,3.9,3.9,0,0,0-1.233,1.334,4.018,4.018,0,0,0-.447,1.916,3.745,3.745,0,0,0,.819,2.448,6.114,6.114,0,0,0,2.516,1.714c.447.186.853.363,1.233.549a5.621,5.621,0,0,1,.988.532,2.543,2.543,0,0,1,.65.616,1.175,1.175,0,0,1,.236.751,1.2,1.2,0,0,1-.152.583,1.288,1.288,0,0,1-.447.464,2.7,2.7,0,0,1-.768.287,3.972,3.972,0,0,1-1.064.118,5.706,5.706,0,0,1-2.068-.38,5.837,5.837,0,0,1-1.9-1.1v3.216a7.572,7.572,0,0,0,1.866.6,10.461,10.461,0,0,0,1.3.169v2.887Z" transform="translate(-484.248 29.644)" fill="#fff" />
    <path id="Path_6" data-name="Path 6" d="M398.66,321.54a7.125,7.125,0,1,0,7.125,7.125A7.137,7.137,0,0,0,398.66,321.54Zm0,12.562a5.437,5.437,0,1,1,5.437-5.437A5.444,5.444,0,0,1,398.66,334.1Z" transform="translate(-585.877 -138.76)" fill="#fff" />
    <path id="Path_7" data-name="Path 7" d="M439.17,364.722h-2.44v-2.448a.847.847,0,0,0-.844-.844h-.2a.847.847,0,0,0-.844.844v2.448H432.4a.847.847,0,0,0-.844.844v.211a.847.847,0,0,0,.844.844h2.44v2.431a.847.847,0,0,0,.844.844h.2a.847.847,0,0,0,.844-.844v-2.431h2.44a.847.847,0,0,0,.844-.844v-.211A.842.842,0,0,0,439.17,364.722Z" transform="translate(-623.002 -175.763)" fill="#fff" />
  </g>
</svg>