<svg xmlns="http://www.w3.org/2000/svg" width="15.845" height="28.175" viewBox="0 0 15.845 28.175">
  <path id="Icon_awesome-dollar-sign" data-name="Icon awesome-dollar-sign" d="M11.513,12.844,5.57,11.1a1.623,1.623,0,0,1,.457-3.181H9.675a3.359,3.359,0,0,1,1.882.578.858.858,0,0,0,1.073-.11l1.915-1.871a.892.892,0,0,0-.1-1.348,7.781,7.781,0,0,0-4.76-1.651V.88A.883.883,0,0,0,8.805,0H7.044a.883.883,0,0,0-.88.88V3.522H6.026a6.029,6.029,0,0,0-6,6.581A6.3,6.3,0,0,0,4.64,15.419l5.64,1.651a1.623,1.623,0,0,1-.457,3.181H6.175a3.359,3.359,0,0,1-1.882-.578.858.858,0,0,0-1.073.11L1.3,21.654A.892.892,0,0,0,1.4,23a7.781,7.781,0,0,0,4.76,1.651v2.641a.883.883,0,0,0,.88.88H8.805a.883.883,0,0,0,.88-.88V24.642a6.216,6.216,0,0,0,5.817-4,6.043,6.043,0,0,0-3.99-7.8Z" transform="translate(-0.003)" fill="#fff"/>
</svg>
