<svg xmlns="http://www.w3.org/2000/svg" width="46.229" height="36.314" viewBox="0 0 46.229 36.314">
  <path id="Icon_ionic-ios-redo" data-name="Icon ionic-ios-redo" d="M2.25,41.939h.3a.448.448,0,0,0,.423-.289,22.435,22.435,0,0,1,2.208-4.1,25.165,25.165,0,0,1,9.749-8.614,24.1,24.1,0,0,1,10.017-2.393.412.412,0,0,1,.433.413v8.418a.417.417,0,0,0,.64.351l22.274-14.67a.414.414,0,0,0,0-.691L26.009,5.7a.41.41,0,0,0-.64.351v8.522a.41.41,0,0,1-.392.413c-7.387.392-12.7,2.559-16.857,6.757C1.827,28.094,2.26,36.09,2.26,38.112,2.26,39.175,2.25,40.722,2.25,41.939Z" transform="translate(-2.25 -5.625)" fill="#838383"/>
</svg>
