<svg xmlns="http://www.w3.org/2000/svg" width="29.454" height="29.454" viewBox="0 0 29.454 29.454">
  <path id="noun-add-text-5230012" d="M87.5,22.409V18.482a.982.982,0,0,1,.982-.982h23.563a.982.982,0,0,1,.982.982v3.927a.982.982,0,1,1-1.964,0V19.464h-9.818V44.99h2.945a.982.982,0,1,1,0,1.964H96.336a.982.982,0,1,1,0-1.964h2.945V19.464H89.464v2.945a.982.982,0,1,1-1.964,0Zm15.709,15.709a6.872,6.872,0,1,1,2.013,4.86,6.622,6.622,0,0,1-2.013-4.86Zm1.964,0a4.909,4.909,0,1,0,1.438-3.471A4.73,4.73,0,0,0,105.172,38.118Zm5.891.982v1.964a.982.982,0,1,1-1.964,0V39.1h-1.964a.982.982,0,1,1,0-1.964H109.1V35.172a.982.982,0,1,1,1.964,0v1.964h1.964a.982.982,0,1,1,0,1.964Z" transform="translate(-87.5 -17.5)" fill="#fff" fill-rule="evenodd" />
</svg>