<svg xmlns="http://www.w3.org/2000/svg" width="35.43" height="28.681" viewBox="0 0 35.43 28.681">
    <path id="text-size" d="M123.561,109.508a.843.843,0,0,1-.844.843H112.594a.844.844,0,1,1,0-1.687h4.218V83.357H106.689v2.531a.844.844,0,1,1-1.687,0V82.513a.843.843,0,0,1,.844-.843h23.62a.843.843,0,0,1,.844.843v3.374a.844.844,0,1,1-1.687,0V83.357H118.5v25.307h4.218a.844.844,0,0,1,.844.844Zm16.027-14.341h-13.5a.844.844,0,0,0-.844.844V97.7a.844.844,0,1,0,1.687,0v-.844H132v11.81h-2.531a.844.844,0,0,0,0,1.687h6.749a.844.844,0,0,0,0-1.687h-2.531V96.854h5.061V97.7a.844.844,0,1,0,1.687,0V96.01a.844.844,0,0,0-.844-.844Z" transform="translate(-105.002 -81.67)" />
</svg>
  