<svg xmlns="http://www.w3.org/2000/svg" width="46.229" height="36.308" viewBox="0 0 46.229 36.308">
  <path id="Icon_ionic-ios-undo" data-name="Icon ionic-ios-undo" d="M48.458,38.113c0-2.022.433-10.017-5.86-16.372-4.168-4.2-9.481-6.365-16.857-6.757a.417.417,0,0,1-.392-.413V6.039a.416.416,0,0,0-.64-.351L2.436,20.358a.414.414,0,0,0,0,.691L24.709,35.72a.41.41,0,0,0,.64-.351V26.951a.412.412,0,0,1,.433-.413A24.259,24.259,0,0,1,35.8,28.931a25.405,25.405,0,0,1,9.749,8.614,22.092,22.092,0,0,1,2.208,4.1.458.458,0,0,0,.423.289h.3C48.469,40.723,48.458,39.176,48.458,38.113Z" transform="translate(-2.25 -5.622)" fill="#fff"/>
</svg>
